<?xml version="1.0" encoding="UTF-8" standalone="no"?> <!-- Created with Vectornator for iOS (http://vectornator.io/) --><!DOCTYPE svg PUBLIC "-//W3C//DTD SVG 1.1//EN" "http://www.w3.org/Graphics/SVG/1.1/DTD/svg11.dtd">
<svg height="100%" style="fill-rule:nonzero;clip-rule:evenodd;stroke-linecap:round;stroke-linejoin:round;" xmlns:xlink="http://www.w3.org/1999/xlink" xmlns="http://www.w3.org/2000/svg" xml:space="preserve" width="100%" xmlns:vectornator="http://vectornator.io" version="1.1" viewBox="0 0 150.799 160.836">
<metadata>
<vectornator:setting key="DimensionsVisible" value="1"/>
<vectornator:setting key="PencilOnly" value="0"/>
<vectornator:setting key="SnapToPoints" value="0"/>
<vectornator:setting key="OutlineMode" value="0"/>
<vectornator:setting key="CMYKEnabledKey" value="0"/>
<vectornator:setting key="RulersVisible" value="1"/>
<vectornator:setting key="SnapToEdges" value="0"/>
<vectornator:setting key="GuidesVisible" value="1"/>
<vectornator:setting key="DisplayWhiteBackground" value="0"/>
<vectornator:setting key="doHistoryDisabled" value="0"/>
<vectornator:setting key="SnapToGuides" value="1"/>
<vectornator:setting key="TimeLapseWatermarkDisabled" value="0"/>
<vectornator:setting key="Units" value="Points"/>
<vectornator:setting key="DynamicGuides" value="0"/>
<vectornator:setting key="IsolateActiveLayer" value="0"/>
<vectornator:setting key="SnapToGrid" value="0"/>
</metadata>
<defs>
<path d="M-11.4776-5.63256L164.911-5.63256L164.911+170.756L-11.4776+170.756L-11.4776-5.63256Z" id="Mask"/>
<path d="M-11.4776-5.63256L164.911-5.63256L164.911+170.756L-11.4776+170.756L-11.4776-5.63256Z" id="Mask_2"/>
</defs>
<g id="layer1" vectornator:layerName="layer1">
<path d="M128.932+80.5408C128.932+107.669+106.94+129.662+79.8113+129.662C52.6827+129.662+30.6906+107.669+30.6906+80.5408C30.6906+53.4122+52.6827+31.4204+79.8113+31.4204C106.94+31.4204+128.932+53.4122+128.932+80.5408" opacity="1" fill="#9badff"/>
<path d="M23.0593+6.50487C22.8727+6.51298+22.7186+6.73558+22.6374+7.06473L20.5874+7.02663C20.387+6.33271+20.0509+5.6963+19.6039+5.15302L21.0623+3.52143C21.3717+3.71475+21.6595+3.77296+21.8024+3.6382C22.0165+3.43641+21.8239+2.88325+21.3717+2.40347C20.9194+1.9237+20.3789+1.69827+20.1644+1.90041C20.0286+2.02882+20.0576+2.29799+20.211+2.59997L18.4164+4.09116C17.8061+3.69146+17.1069+3.41947+16.3555+3.30306L16.1569+0.992009C16.5097+0.899229+16.7492+0.729543+16.7492+0.533398C16.7492+0.238829+16.2147-1.76904e-06+15.5554-1.76904e-06C14.8961-1.76904e-06+14.3616+0.238829+14.3616+0.533398C14.3616+0.72037+14.5772+0.884059+14.9024+0.979309L14.7574+3.30023C13.9965+3.41524+13.2881+3.6897+12.6711+4.09504L10.8723+2.59997C11.0261+2.29799+11.0547+2.02882+10.9185+1.90041C10.7044+1.69827+10.1639+1.9237+9.71164+2.40347C9.25938+2.88325+9.06641+3.43641+9.2809+3.6382C9.42377+3.77296+9.71164+3.71475+10.021+3.52143L11.4851+5.15973C11.0409+5.70159+10.7061+6.33518+10.5064+7.02663L8.44587+7.06473C8.36473+6.73558+8.21057+6.51298+8.02395+6.50487C7.72973+6.49181+7.46762+7.01569+7.43869+7.67433C7.41012+8.33296+7.62531+8.87765+7.91953+8.89035C8.11567+8.89917+8.29524+8.66704+8.40354+8.3185L10.3011+8.56544C10.3177+9.62836+10.6469+10.6147+11.2049+11.4346L10.0348+12.7441C9.7254+12.5504+9.43753+12.4926+9.29466+12.627C9.08052+12.8291+9.27314+13.3819+9.7254+13.8617C10.1777+14.3415+10.7181+14.5669+10.9326+14.3648C11.0684+14.2367+11.0398+13.9672+10.886+13.6652L12.2277+12.5504C12.9505+13.141+13.8349+13.5375+14.8029+13.6751L14.9402+15.2735C14.5874+15.3663+14.3478+15.536+14.3478+15.7318C14.3478+16.0267+14.8823+16.2652+15.5416+16.2652C16.201+16.2652+16.7354+16.0267+16.7354+15.7318C16.7354+15.5452+16.5199+15.3815+16.1946+15.2862L16.2952+13.6747C17.2657+13.5357+18.1518+13.1371+18.875+12.5437L20.2248+13.6652C20.071+13.9672+20.0424+14.2367+20.1782+14.3648C20.3927+14.5669+20.9331+14.3415+21.3854+13.8617C21.8377+13.3819+22.0303+12.8291+21.8162+12.627C21.6733+12.4926+21.3854+12.5504+21.076+12.7441L19.8967+11.424C20.4505+10.6059+20.7765+9.62272+20.7927+8.56403L22.6798+8.3185C22.7877+8.66704+22.968+8.89917+23.1638+8.89035C23.458+8.87765+23.6732+8.33296+23.6446+7.67433C23.6157+7.01569+23.3536+6.49181+23.0593+6.50487" opacity="1" fill="#9badff"/>
<path d="M150.124+15.6006C149.91+15.6101+149.733+15.8655+149.64+16.2434L147.286+16.1996C147.056+15.4027+146.67+14.6728+146.157+14.0487L147.832+12.1755C148.187+12.3974+148.517+12.4641+148.681+12.3095C148.927+12.0778+148.706+11.4431+148.187+10.8921C147.668+10.341+147.047+10.0825+146.801+10.3146C146.645+10.4617+146.678+10.7711+146.854+11.1175L144.794+12.8299C144.093+12.3709+143.291+12.0584+142.428+11.9247L142.2+9.27142C142.605+9.16488+142.88+8.9705+142.88+8.74507C142.88+8.40676+142.267+8.13265+141.509+8.13265C140.753+8.13265+140.139+8.40676+140.139+8.74507C140.139+8.95956+140.386+9.14759+140.76+9.25696L140.593+11.9215C139.719+12.0534+138.907+12.3688+138.198+12.8338L136.133+11.1175C136.309+10.7711+136.343+10.4617+136.186+10.3146C135.94+10.0825+135.32+10.341+134.8+10.8921C134.281+11.4431+134.06+12.0778+134.306+12.3095C134.47+12.4641+134.8+12.3974+135.156+12.1755L136.837+14.0561C136.327+14.6784+135.943+15.4059+135.713+16.1993L133.347+16.2434C133.254+15.8655+133.077+15.6101+132.863+15.6006C132.525+15.5858+132.225+16.1869+132.191+16.9433C132.158+17.6993+132.405+18.3244+132.743+18.3392C132.968+18.3491+133.175+18.0827+133.299+17.6827L135.477+17.9663C135.496+19.1866+135.874+20.319+136.515+21.2599L135.171+22.7631C134.816+22.5412+134.486+22.4745+134.322+22.629C134.076+22.8611+134.297+23.4958+134.816+24.0465C135.335+24.5975+135.956+24.8561+136.202+24.624C136.358+24.4772+136.325+24.1678+136.149+23.821L137.689+22.5408C138.519+23.2188+139.534+23.6743+140.645+23.8323L140.803+25.6675C140.398+25.7737+140.123+25.9684+140.123+26.1935C140.123+26.5318+140.737+26.8059+141.494+26.8059C142.251+26.8059+142.864+26.5318+142.864+26.1935C142.864+25.979+142.617+25.7909+142.243+25.6816L142.359+23.8316C143.473+23.6722+144.49+23.2146+145.321+22.533L146.87+23.821C146.694+24.1678+146.661+24.4772+146.817+24.624C147.063+24.8561+147.683+24.5975+148.203+24.0465C148.722+23.4958+148.943+22.8611+148.697+22.629C148.533+22.4745+148.203+22.5412+147.847+22.7631L146.493+21.2482C147.129+20.3091+147.503+19.1799+147.522+17.9649L149.689+17.6827C149.813+18.0827+150.019+18.3491+150.244+18.3392C150.582+18.3244+150.829+17.6993+150.796+16.9433C150.763+16.1869+150.462+15.5858+150.124+15.6006" opacity="1" fill="#9badff"/>
<path d="M23.8355+137.762C23.5508+137.775+23.3155+138.115+23.1921+138.617L20.064+138.559C19.7585+137.5+19.2455+136.529+18.564+135.7L20.7886+133.211C21.2609+133.506+21.6998+133.594+21.9175+133.389C22.2448+133.081+21.9506+132.237+21.2606+131.505C20.5709+130.773+19.7465+130.429+19.4191+130.738C19.212+130.933+19.2558+131.344+19.4904+131.805L16.7521+134.08C15.8208+133.47+14.754+133.055+13.6074+132.877L13.3044+129.351C13.8431+129.21+14.2086+128.951+14.2086+128.652C14.2086+128.202+13.3929+127.838+12.3872+127.838C11.3811+127.838+10.5654+128.202+10.5654+128.652C10.5654+128.937+10.8946+129.187+11.3913+129.332L11.1697+132.873C10.0084+133.049+8.92819+133.467+7.98663+134.086L5.24201+131.805C5.47661+131.344+5.52036+130.933+5.31292+130.738C4.9859+130.429+4.16146+130.773+3.47142+131.505C2.78139+132.237+2.48753+133.081+2.81455+133.389C3.03221+133.594+3.47142+133.506+3.94344+133.211L6.17723+135.71C5.49919+136.537+4.98907+137.504+4.68427+138.558L1.53996+138.617C1.41684+138.115+1.18154+137.775+0.89685+137.762C0.447764+137.743+0.0480667+138.542+0.00396948+139.547C-0.0401277+140.551+0.288308+141.383+0.737394+141.402C1.0362+141.415+1.31066+141.061+1.47541+140.529L4.37101+140.906C4.39605+142.528+4.89841+144.033+5.75001+145.283L3.96461+147.281C3.49224+146.986+3.05338+146.898+2.83572+147.103C2.50834+147.411+2.80256+148.254+3.49224+148.986C4.18262+149.719+5.00671+150.062+5.33409+149.754C5.54152+149.558+5.49778+149.147+5.26318+148.687L7.31035+146.986C8.41278+147.887+9.76216+148.492+11.2389+148.702L11.4488+151.141C10.9101+151.282+10.5446+151.541+10.5446+151.84C10.5446+152.289+11.3602+152.654+12.366+152.654C13.3721+152.654+14.1874+152.289+14.1874+151.84C14.1874+151.555+13.8586+151.305+13.3623+151.16L13.5161+148.701C14.996+148.489+16.3482+147.881+17.4517+146.975L19.5112+148.687C19.2766+149.147+19.2328+149.558+19.4403+149.754C19.7673+150.062+20.5917+149.719+21.2818+148.986C21.9718+148.254+22.2657+147.411+21.9386+147.103C21.721+146.898+21.2818+146.986+20.8097+147.281L19.0102+145.268C19.8555+144.02+20.3529+142.519+20.3772+140.904L23.2566+140.529C23.4214+141.061+23.6958+141.415+23.995+141.402C24.4441+141.383+24.7721+140.551+24.7284+139.547C24.6843+138.542+24.2846+137.743+23.8355+137.762" opacity="1" fill="#9badff"/>
<path d="M146.282+141.563C146.074+141.572+145.902+141.821+145.811+142.188L143.523+142.145C143.3+141.371+142.924+140.661+142.426+140.055L144.053+138.234C144.398+138.45+144.72+138.514+144.879+138.364C145.118+138.138+144.903+137.522+144.398+136.986C143.894+136.451+143.291+136.199+143.052+136.425C142.9+136.568+142.932+136.868+143.103+137.205L141.101+138.869C140.42+138.424+139.639+138.12+138.801+137.99L138.579+135.411C138.973+135.307+139.24+135.118+139.24+134.899C139.24+134.57+138.644+134.304+137.908+134.304C137.172+134.304+136.575+134.57+136.575+134.899C136.575+135.107+136.816+135.291+137.179+135.397L137.017+137.987C136.168+138.115+135.378+138.422+134.689+138.874L132.681+137.205C132.853+136.868+132.885+136.568+132.733+136.425C132.494+136.199+131.891+136.451+131.386+136.986C130.881+137.522+130.666+138.138+130.906+138.364C131.065+138.514+131.386+138.45+131.732+138.234L133.365+140.062C132.869+140.667+132.496+141.374+132.274+142.145L129.973+142.188C129.883+141.821+129.711+141.572+129.503+141.563C129.174+141.549+128.882+142.133+128.85+142.868C128.817+143.603+129.058+144.211+129.386+144.225C129.605+144.235+129.805+143.976+129.926+143.587L132.044+143.863C132.062+145.049+132.43+146.15+133.053+147.065L131.747+148.526C131.401+148.31+131.08+148.245+130.921+148.396C130.682+148.621+130.897+149.238+131.401+149.773C131.906+150.309+132.509+150.56+132.749+150.335C132.9+150.192+132.868+149.891+132.697+149.554L134.194+148.31C135+148.969+135.988+149.412+137.068+149.565L137.221+151.349C136.827+151.452+136.56+151.641+136.56+151.86C136.56+152.189+137.157+152.456+137.893+152.456C138.628+152.456+139.225+152.189+139.225+151.86C139.225+151.652+138.984+151.469+138.621+151.363L138.734+149.565C139.816+149.409+140.805+148.965+141.613+148.302L143.119+149.554C142.947+149.891+142.915+150.192+143.067+150.335C143.306+150.56+143.909+150.309+144.414+149.773C144.918+149.238+145.134+148.621+144.894+148.396C144.735+148.245+144.414+148.31+144.069+148.526L142.752+147.053C143.371+146.14+143.735+145.043+143.753+143.862L145.859+143.587C145.979+143.976+146.18+144.235+146.398+144.225C146.727+144.211+146.967+143.603+146.935+142.868C146.903+142.133+146.61+141.549+146.282+141.563" opacity="1" fill="#9badff"/>
<path d="M17.0818+74.5036C16.9396+74.51+16.8221+74.6797+16.7604+74.9305L15.1972+74.9016C15.0445+74.3724+14.788+73.8873+14.4476+73.4732L15.5592+72.2289C15.7952+72.3764+16.0146+72.4208+16.1233+72.3182C16.287+72.164+16.1399+71.7424+15.7952+71.3766C15.4502+71.0108+15.0385+70.8393+14.8748+70.9931C14.7711+71.0909+14.7929+71.2962+14.9104+71.5265L13.542+72.6635C13.0767+72.3587+12.5436+72.1513+11.9707+72.0624L11.8194+70.3003C12.0882+70.2297+12.2709+70.1006+12.2709+69.951C12.2709+69.7263+11.8635+69.5443+11.3608+69.5443C10.8577+69.5443+10.4506+69.7263+10.4506+69.951C10.4506+70.0932+10.6146+70.2181+10.863+70.2908L10.7522+72.0603C10.1719+72.1481+9.63216+72.3573+9.16156+72.6664L7.78996+71.5265C7.90743+71.2962+7.9293+71.0909+7.82559+70.9931C7.6619+70.8393+7.24985+71.0108+6.90519+71.3766C6.56053+71.7424+6.41342+72.164+6.57711+72.3182C6.68576+72.4208+6.90519+72.3764+7.1412+72.2289L8.25739+73.4777C7.91872+73.8912+7.66366+74.3742+7.51126+74.9012L5.93999+74.9305C5.87825+74.6797+5.76078+74.51+5.61861+74.5036C5.39424+74.4937+5.19422+74.8931+5.17234+75.3951C5.15047+75.8975+5.31451+76.3127+5.53888+76.3225C5.68846+76.3289+5.82534+76.1522+5.90789+75.8865L7.35498+76.0749C7.36733+76.8849+7.61815+77.637+8.04396+78.2621L7.15178+79.2605C6.91577+79.113+6.69635+79.0689+6.58734+79.1712C6.424+79.3254+6.57111+79.747+6.91577+80.1128C7.26044+80.4786+7.67248+80.6504+7.83617+80.4963C7.93953+80.3985+7.91766+80.1932+7.80054+79.9629L8.8236+79.1127C9.37463+79.5632+10.0488+79.8655+10.7868+79.9706L10.8916+81.1891C10.6224+81.2597+10.44+81.3891+10.44+81.5387C10.44+81.7634+10.8475+81.9455+11.3502+81.9455C11.8529+81.9455+12.2604+81.7634+12.2604+81.5387C12.2604+81.3962+12.096+81.2713+11.848+81.1986L11.9249+79.9703C12.6646+79.8641+13.3402+79.5603+13.8916+79.1077L14.921+79.9629C14.8035+80.1932+14.7817+80.3985+14.8854+80.4963C15.0487+80.6504+15.4608+80.4786+15.8054+80.1128C16.1504+79.747+16.2972+79.3254+16.1339+79.1712C16.0248+79.0689+15.8058+79.113+15.5698+79.2605L14.6705+78.2544C15.0928+77.6306+15.3415+76.881+15.3539+76.0738L16.7925+75.8865C16.875+76.1522+17.0119+76.3289+17.1615+76.3225C17.3859+76.3127+17.5499+75.8975+17.528+75.3951C17.5062+74.8931+17.3061+74.4937+17.0818+74.5036" opacity="1" fill="#9badff"/>
<g opacity="1" vectornator:mask="#Mask">
<clipPath id="ClipPath">
<use xlink:href="#Mask" fill="none" overflow="visible"/>
</clipPath>
<g clip-path="url(#ClipPath)">
<g opacity="1">
<path d="M114.175+156.879C114.175+159.064+99.2377+160.836+80.8118+160.836C62.3855+160.836+47.4482+159.064+47.4482+156.879C47.4482+154.695+62.3855+152.923+80.8118+152.923C99.2377+152.923+114.175+154.695+114.175+156.879" opacity="1" fill="#b4c0ff"/>
<path d="M124.178+55.5207C109.932+50.0455+80.1424+29.3181+80.1424+29.3181C80.1424+29.3181+49.9415+50.0455+35.6963+55.5207C35.6963+55.5207+35.2476+86.7189+45.9787+102.437C55.8724+116.928+78.5729+132.754+79.9371+132.754C81.9673+132.754+104.002+116.928+113.896+102.437C124.626+86.7189+124.178+55.5207+124.178+55.5207" opacity="1" fill="#eaecff"/>
<path stroke="#00324c" stroke-width="0.352778" d="M124.178+55.5207C109.932+50.0455+80.1424+29.3181+80.1424+29.3181C80.1424+29.3181+49.9415+50.0455+35.6963+55.5207C35.6963+55.5207+35.2476+86.7189+45.9787+102.437C55.8724+116.928+78.5729+132.754+79.9371+132.754C81.9673+132.754+104.002+116.928+113.896+102.437C124.626+86.7189+124.178+55.5207+124.178+55.5207Z" fill="none" stroke-linecap="butt" opacity="1" stroke-linejoin="miter"/>
<path d="M117.664+59.2735C105.516+54.6049+80.1121+36.929+80.1121+36.929C80.1121+36.929+54.3579+54.6049+42.2097+59.2735C42.2097+59.2735+41.8273+85.8786+50.9783+99.2821C59.4157+111.64+78.7737+125.136+79.9371+125.136C81.6686+125.136+100.459+111.64+108.896+99.2821C118.047+85.8786+117.664+59.2735+117.664+59.2735" opacity="1" fill="#b4c0ff"/>
<path d="M61.5936+56.2762C61.5936+56.2762+58.9982+57.2756+57.0646+62.5087C55.1314+67.7421+49.7269+85.8499+49.7269+85.8499L57.0646+89.9149C57.0646+89.9149+60.9212+81.8324+61.4818+74.9886C62.042+68.145+61.5936+56.2762+61.5936+56.2762" opacity="1" fill="#ffb39f"/>
<path d="M36.9484+76.9345L51.5425+83.5106C51.5425+83.5106+54.1202+83.99+55.7451+87.0084C57.3704+90.0264+57.0645+89.9149+57.0645+89.9149C57.0645+89.9149+54.3315+93.6748+51.3534+92.8391C48.3756+92.0041+34.8924+81.9489+34.8924+81.9489L36.9484+76.9345Z" opacity="1" fill="#ffcdb9"/>
<path d="M61.5936+56.2762L68.8665+52.6824L76.696+52.6824L87.2769+56.4755C87.2769+56.4755+92.3675+74.4435+81.8864+87.4201C81.8864+87.4201+85.671+101.224+85.9921+107.609C85.9921+107.609+76.1429+109.664+68.9444+109.359C61.746+109.053+57.1987+108.506+57.1987+108.506L59.1273+80.5229C59.1273+80.5229+57.5585+77.6362+57.0953+72.3963C56.6321+67.1565+61.5936+56.2762+61.5936+56.2762" opacity="1" fill="#7088ff"/>
<path d="M85.2962+55.4006C85.2962+55.4006+82.692+56.2289+80.6677+60.6457C78.6435+65.0621+73.2375+81.0729+73.2375+81.0729L56.445+77.1571L54.6952+82.7811C54.6952+82.7811+68.0605+90.1972+74.9287+89.0104C84.2311+87.4028+88.8571+69.4813+89.4092+63.7289C89.9613+57.9769+85.2962+55.4006+85.2962+55.4006" opacity="1" fill="#ffcdb9"/>
<path d="M57.1988+77.7277C57.1988+77.7277+56.4898+74.8914+55.2046+73.6059C53.9194+72.3207+52.944+72.8083+52.3683+73.6059C52.3683+73.6059+50.1521+72.5677+49.0885+73.1977C48.0249+73.8278+48.5565+75.2713+48.5565+75.2713C48.5565+75.2713+47.8474+75.955+48.2019+77.3291C48.2019+77.3291+48.1134+78.4813+48.4679+79.3674C48.8225+80.254+49.1329+80.4759+49.1329+80.4759C49.1329+80.4759+49.044+81.0961+50.2851+81.9381C51.5258+82.7802+54.8109+82.934+54.8109+82.934L57.1988+77.7277Z" opacity="1" fill="#ffcdb9"/>
<path d="M84.0497+61.7909L83.5463+63.6158L87.8068+64.8484L88.1427+63.0792L84.0497+61.7909Z" opacity="1" fill="#ffffff"/>
<path d="M87.6106+61.3823L85.7794+60.9036L84.5019+65.5497L86.3258+66.0492L86.8426+64.1717L87.1485+63.0612L87.6106+61.3823Z" opacity="1" fill="#ffffff"/>
<path d="M34.8924+81.9488C34.8924+81.9488+31.6366+78.3928+30.9656+76.4469C30.2946+74.5013+31.033+72.6895+31.6701+72.1194C32.3076+71.5489+33.1461+72.1194+33.1461+72.1194C33.1461+72.1194+33.5487+71.8806+34.354+71.8657C35.1591+71.8509+35.3605+72.656+35.3605+72.656C35.3605+72.656+36.0985+72.1864+36.6016+72.4214C37.105+72.656+37.3735+73.394+37.3735+73.394C37.3735+73.394+37.8765+72.9579+38.749+73.5284C39.621+74.0988+39.7551+75.3399+39.6545+75.843C39.554+76.3464+39.319+76.4469+39.319+76.4469C39.319+76.4469+40.225+76.4469+40.5605+78.3593C40.896+80.2714+39.2855+81.9488+39.2855+81.9488C39.2855+81.9488+38.4498+83.5928+34.8924+81.9488" opacity="1" fill="#ffcdb9"/>
<path d="M32.7773+72.3877C32.7773+72.3877+33.1452+71.3812+34.5218+71.2136C35.8983+71.0457+37.5077+71.7841+37.5412+72.3877C37.5747+72.9916+36.6352+73.3606+36.6352+73.3606L32.7773+72.3877Z" opacity="1" fill="#ffcdb9"/>
<path d="M61.5936+56.2762C61.5936+56.2762+60.277+57.3765+58.7802+58.5145C56.775+60.0389+54.9967+67.274+54.9967+67.274L57.4432+68.411C57.4432+68.411+61.0669+56.7986+61.5936+56.2762" opacity="1" fill="#4c68d5"/>
<path d="M79.7988+62.7121C79.7988+62.7121+81.0861+59.4419+84.319+58.5486C89.4032+57.1435+89.3771+64.035+89.3771+64.035C89.3771+64.035+90.717+58.3779+87.797+56.5604C86.4201+55.7028+84.47+55.9155+83.0776+56.9876C81.6848+58.06+79.9576+61.4333+79.7988+62.7121" opacity="1" fill="#4c68d5"/>
<path d="M66.6665+53.7695C66.6665+53.7695+66.8923+56.6739+71.8456+56.7194C76.7993+56.7649+80.1553+53.923+80.1553+53.923L76.6628+52.4928L69.0054+52.4928L66.6665+53.7695Z" opacity="1" fill="#ffcdb9"/>
<path d="M76.3214+27.6899C76.3214+27.6899+74.2252+25.2194+70.1449+25.5563C66.0647+25.8932+58.8405+30.6473+58.7654+35.813C58.6906+40.9784+63.1077+42.3637+63.1077+42.3637L76.3214+27.6899Z" opacity="1" fill="#004670"/>
<path d="M74.6991+53.5034L68.8663+53.4508L69.0053+51.8615L69.2903+48.622L75.6766+48.9903L75.3902+50.3114L74.6991+53.5034Z" opacity="1" fill="#ffcdb9"/>
<path d="M75.3903+50.3113C73.7425+51.0529+70.8416+52.1779+69.0054+51.8614L69.2901+48.6219L76.1915+46.1909L75.3903+50.3113Z" opacity="1" fill="#d98f74"/>
<path d="M61.5989+42.0119C61.5989+42.0119+61.3566+47.1402+64.1478+49.8041C66.9382+52.4682+73.3179+51.3401+75.2913+48.2713C77.2647+45.2021+78.1562+36.2352+78.1562+36.2352C78.1562+36.2352+72.2623+31.4829+68.3606+31.4208C64.4593+31.3587+61.7376+36.6684+61.5989+42.0119" opacity="1" fill="#ffcdb9"/>
<path d="M76.6357+41.0757C76.6357+41.0757+77.9396+39.7602+79.3705+40.5314C80.8017+41.3025+80.1152+44.1251+78.5958+45.544C77.0764+46.9632+75.1124+46.0763+75.1124+46.0763L76.6357+41.0757Z" opacity="1" fill="#ffcdb9"/>
<path d="M65.3437+38.49L64.4046+42.0566C64.4046+42.0566+63.4811+41.3203+63.0987+41.822C62.7166+42.324+63.8751+43.4116+64.9447+43.4017C66.014+43.3922+66.111+38.9832+65.9346+38.3122C65.7583+37.6412+65.4757+37.9883+65.3437+38.49" opacity="1" fill="#e67e5b"/>
<path d="M62.4171+35.9575C62.4171+35.9575+62.6136+35.0572+63.6758+34.8177C64.7381+34.5778+65.4895+36.0602+65.112+36.2676C64.7342+36.4757+64.4915+35.9102+63.8155+35.8996C63.14+35.8887+62.7318+36.5184+62.7318+36.5184C62.7318+36.5184+62.3268+36.5974+62.4171+35.9575" opacity="1" fill="#00324c"/>
<path d="M69.1697+36.0557C69.1697+36.0557+69.569+35.2252+70.6577+35.2376C71.7464+35.2496+72.1351+36.8653+71.7199+36.9803C71.3043+37.0953+71.1985+36.4892+70.5438+36.3224C69.889+36.1559+69.4928+36.4448+69.4928+36.4448C69.4928+36.4448+68.934+36.6575+69.1697+36.0557" opacity="1" fill="#00324c"/>
<path d="M70.1476+38.9542C70.1384+39.5296+69.8897+39.9924+69.592+39.9878C69.2942+39.9833+69.0603+39.5127+69.0695+38.9369C69.0787+38.3615+69.3274+37.8987+69.6251+37.9033C69.9229+37.9082+70.1568+38.3785+70.1476+38.9542" opacity="1" fill="#00324c"/>
<path d="M64.3397+38.8615C64.3319+39.3558+64.1181+39.7534+63.8624+39.7495C63.6066+39.7452+63.4059+39.3413+63.4136+38.8467C63.4214+38.3525+63.6352+37.9549+63.8909+37.9588C64.1467+37.963+64.3474+38.3669+64.3397+38.8615" opacity="1" fill="#00324c"/>
<path d="M76.7647+41.0356C74.9455+40.9894+73.3643+41.8261+72.3554+42.3334C71.0794+41.7909+67.1082+40.1935+64.9929+40.3819C62.4497+40.6091+61.6369+41.2331+61.6369+41.2331C60.6252+47.6008+64.6726+50.2321+64.6726+50.2321C64.6726+50.2321+67.7622+51.0911+70.2503+49.2599C72.0615+47.9271+72.5674+44.9609+72.7085+43.444L76.3566+41.9232L76.7647+41.0356Z" opacity="1" fill="#ffffff"/>
<path d="M88.7851+55.0152C87.5888+58.6481+84.7066+58.61+83.2849+57.188C81.8628+55.7659+80.7019+55.5783+78.9426+56.3258C77.1833+57.0733+75.0105+55.9504+74.6986+53.5043C74.3871+51.0546+76.1909+46.1905+76.1909+46.1905C76.5758+46.2254+76.9702+46.1841+77.3519+46.073C78.6529+45.6881+79.8111+44.4919+80.088+42.8024C80.4472+40.6201+78.4176+40.2928+77.6352+40.4455C77.2471+40.5217+76.9448+40.9447+76.7349+41.3617C76.5154+41.7942+76.3976+42.214+76.3976+42.214C76.3976+42.214+75.2747+41.8005+74.4856+40.3658C73.6999+38.931+73.1528+36.523+73.1528+36.523C73.1528+36.523+71.3554+36.4627+69.3068+35.0152C67.5189+33.7523+67.484+31.9549+67.5062+31.5188C67.5094+31.4553+67.5126+31.4204+67.5126+31.4204C68.5081+30.0492+71.7688+28.0736+74.8165+27.5106C76.2004+27.253+77.5396+27.288+78.6057+27.8034C82.0124+29.448+83.5841+33.4182+83.5841+36.9939C83.5841+40.5725+85.4926+42.475+87.4396+44.9851C89.3865+47.4915+89.9845+51.3855+88.7851+55.0152" opacity="1" fill="#004670"/>
<path d="M69.9769+48.2318C68.6712+49.4263+66.508+49.9947+64.2425+49.7343C63.7782+49.3417+63.0392+48.5927+62.4352+47.4303C61.7931+46.1773+61.3074+44.4356+61.5286+42.1422C62.0951+41.8448+63.1743+41.4465+64.9974+41.3671C67.9809+41.2341+71.3093+43.167+71.3093+43.167C71.3093+43.167+71.6332+46.7135+69.9769+48.2318" opacity="1" fill="#b1e7ff"/>
<path d="M69.9769+48.2318C68.6712+49.4263+66.508+49.9947+64.2425+49.7343C63.7782+49.3417+63.0392+48.5927+62.4352+47.4303C63.5785+47.9454+65.5964+48.5186+67.6679+47.4727C70.8239+45.8799+71.3093+43.167+71.3093+43.167C71.3093+43.167+71.6332+46.7135+69.9769+48.2318" opacity="1" fill="#93d3ec"/>
<path d="M87.9389+52.6834C87.4842+54.9038+85.3495+57.1404+83.8957+55.4002C82.4419+53.6603+80.7588+54.5062+79.5312+54.605C78.3063+54.7066+76.9862+53.3227+76.5311+50.4345C76.1558+48.0324+76.843+46.9127+77.3517+46.0731C78.6531+45.6879+79.8109+44.4919+80.0878+42.8025C80.4473+40.6202+78.4178+40.2925+77.635+40.4456C77.2469+40.5218+76.9446+40.9448+76.7347+41.3617C75.1634+40.121+74.352+35.6577+74.352+35.6577C74.352+35.6577+72.9427+35.3748+71.0786+34.2833C69.2145+33.1925+68.3619+31.4205+68.3619+31.4205C68.0627+31.4296+67.7766+31.4649+67.506+31.5189C62.9823+32.4446+61.869+39.4116+61.869+39.4116C61.869+39.4116+58.6721+34.1467+64.5159+29.6005C69.5006+25.7228+73.6966+27.0428+74.8166+27.5106C75.0107+27.5932+75.1123+27.6475+75.1123+27.6475C75.1123+27.6475+73.124+29.2382+74.3965+29.3176C75.6689+29.3969+76.897+28.1022+78.1567+28.5097C79.4165+28.92+81.3952+31.328+81.4877+34.1467C81.5766+36.9651+82.3939+40.3278+85.6233+45.0074C88.8487+49.6901+88.3936+50.4599+87.9389+52.6834" opacity="1" fill="#00324c"/>
<path stroke="#00324c" stroke-width="0.352778" d="M76.2494+84.4436L73.5693+81.6715" fill="none" stroke-linecap="round" opacity="1" stroke-linejoin="round"/>
<path stroke="#00324c" stroke-width="0.352778" d="M89.3773+64.0348C89.3773+64.0348+89.7117+58.6867+86.3487+58.3678C82.986+58.0486+80.6679+60.6457+79.799+62.7119C78.9297+64.7785+73.2377+81.0729+73.2377+81.0729L57.0646+77.3014C57.0646+77.3014+56.4109+74.252+54.9966+73.2293C53.5827+72.2069+52.368+73.6061+52.368+73.6061C52.368+73.6061+50.3844+72.4267+49.2114+73.1347C48.038+73.8428+48.5566+75.2712+48.5566+75.2712C48.5566+75.2712+48.0296+76.0949+48.1121+76.798C48.1943+77.5011+48.3107+77.7057+48.3107+77.7057C48.3107+77.7057+48.1972+78.243+48.3788+79.1104C48.5609+79.9779+49.1327+80.4757+49.1327+80.4757C49.1327+80.4757+48.8907+81.0705+50.1801+81.8649C51.4692+82.6594+54.695+82.9338+54.695+82.9338" fill="none" stroke-linecap="round" opacity="1" stroke-linejoin="round"/>
<path stroke="#00324c" stroke-width="0.352778" d="M55.7452+79.76L54.811+82.9339" fill="none" stroke-linecap="round" opacity="1" stroke-linejoin="round"/>
<path stroke="#00324c" stroke-width="0.352778" d="M54.8111+82.934C54.8111+82.934+68.7239+90.6891+75.105+88.8444C81.4864+86.9994+84.1213+81.2678+85.4463+77.9326C86.771+74.5975+89.1875+67.2301+89.245+65.0263" fill="none" stroke-linecap="round" opacity="1" stroke-linejoin="round"/>
<path stroke="#00324c" stroke-width="0.352778" d="M66.2619+54.6063C66.2619+54.6063+67.0009+57.1869+71.3352+57.5051" fill="none" stroke-linecap="round" opacity="1" stroke-linejoin="round"/>
<path stroke="#00324c" stroke-width="0.352778" d="M76.1915+56.7199C76.1915+56.7199+75.0157+57.3235+73.4109+57.3235" fill="none" stroke-linecap="round" opacity="1" stroke-linejoin="round"/>
<path stroke="#00324c" stroke-width="0.352778" d="M61.6368+41.233C61.6368+41.233+60.2314+47.4468+64.6725+50.2323C69.1136+53.0175+74.9115+49.9992+75.6767+47.5717" fill="none" stroke-linecap="round" opacity="1" stroke-linejoin="round"/>
<path stroke="#00324c" stroke-width="0.352778" d="M80.8117+88.2266L79.7259+89.207" fill="none" stroke-linecap="round" opacity="1" stroke-linejoin="round"/>
<path stroke="#00324c" stroke-width="0.352778" d="M58.991+85.2157L57.1989+108.506C57.1989+108.506+63.3704+109.921+71.2694+109.39C79.1685+108.859+85.9922+107.609+85.9922+107.609" fill="none" stroke-linecap="round" opacity="1" stroke-linejoin="round"/>
<path stroke="#00324c" stroke-width="0.352778" d="M50.8929+83.2178C50.8929+83.2178+54.7587+83.3868+56.0223+88.2266" fill="none" stroke-linecap="round" opacity="1" stroke-linejoin="round"/>
<path stroke="#00324c" stroke-width="0.352778" d="M58.9521+85.7224C58.9521+85.7224+57.0224+93.5185+52.0373+92.9607C48.7198+92.5892+35.9587+83.1778+34.8923+81.9488C33.8258+80.7197+31.3391+78.294+30.8325+75.9833C30.3256+73.6726+31.2964+72.2703+31.8676+71.9831C32.4391+71.6956+32.989+72.0315+32.989+72.0315C32.989+72.0315+33.1397+71.3337+34.5219+71.2137C35.904+71.0934+37.3166+71.866+37.542+72.1616C37.7674+72.4569+37.3243+72.9039+37.3243+72.9039" fill="none" stroke-linecap="round" opacity="1" stroke-linejoin="round"/>
<path stroke="#00324c" stroke-width="0.352778" d="M32.3707+74.5588C32.3707+74.5588+32.5069+72.138+33.8704+71.8657C35.2339+71.5933+35.3605+72.6559+35.3605+72.6559" fill="none" stroke-linecap="round" opacity="1" stroke-linejoin="round"/>
<path stroke="#00324c" stroke-width="0.352778" d="M34.5691+75.0359C34.5691+75.0359+34.6308+72.9573+35.8133+72.5305C36.9958+72.1036+37.5419+73.5362+37.5419+73.5362" fill="none" stroke-linecap="round" opacity="1" stroke-linejoin="round"/>
<path stroke="#00324c" stroke-width="0.352778" d="M36.6654+75.4448C36.6654+75.4448+37.0062+73.3896+38.3012+73.3606C39.5966+73.3317+39.7854+75.187+39.6545+75.8431C39.524+76.4993+39.1193+76.4675+39.1193+76.4675" fill="none" stroke-linecap="round" opacity="1" stroke-linejoin="round"/>
<path stroke="#00324c" stroke-width="0.352778" d="M37.9947+76.4677C37.9947+76.4677+38.6921+76.1265+39.6898+76.8081C40.6871+77.49+40.7555+79.1943+40.7555+79.1943" fill="none" stroke-linecap="round" opacity="1" stroke-linejoin="round"/>
<path stroke="#00324c" stroke-width="0.352778" d="M40.7554+78.65L50.8928+83.4206" fill="none" stroke-linecap="round" opacity="1" stroke-linejoin="round"/>
<path stroke="#00324c" stroke-width="0.352778" d="M53.6999+72.8145L55.3932+67.4583" fill="none" stroke-linecap="round" opacity="1" stroke-linejoin="round"/>
<path stroke="#00324c" stroke-width="0.352778" d="M57.4433+68.411L54.9968+67.274C54.9968+67.274+56.7324+58.1032+61.5937+56.2761C61.5937+56.2761+57.8543+66.3218+57.1988+69.5483C56.5433+72.7752+58+77.4805+58+77.4805" fill="none" stroke-linecap="round" opacity="1" stroke-linejoin="round"/>
<path stroke="#00324c" stroke-width="0.352778" d="M62.0396+56.0558L66.6666+53.7695L69.0055+52.4928L69.0694+51.3473" fill="none" stroke-linecap="round" opacity="1" stroke-linejoin="round"/>
<path d="M126.45+88.4599C126.101+88.1858+124.967+88.214+124.661+88.2271L124.692+88.051C126.07+88.1819+126.756+87.8902+126.405+87.6139C126.095+87.3695+125.092+87.3924+124.806+87.404L124.806+87.404C124.757+87.4062+124.727+87.4079+124.727+87.4079L124.727+87.41L123.296+87.5243L123.406+87.2139C123.406+87.2139+124.855+86.7133+124.462+86.4226C124.068+86.1319+123.292+86.2388+122.75+86.4896C122.209+86.7405+121.559+87.6873+121.559+87.6873L121.047+87.5892L109.5+84.1137L107.044+78.0385L102.83+79.0735C102.83+79.0735+104.156+84.5818+106.462+87.0403C108.475+89.1866+118.067+90.1656+120.472+90.3797L120.474+90.3801C120.823+90.4111+121.021+90.4263+121.021+90.4263L121.021+90.4238L121.743+90.4817C123.432+91.0274+124.218+90.7325+124.218+90.7325L124.219+90.7251C125.574+90.8341+126.237+90.5388+125.882+90.2591C125.595+90.0326+124.735+90.0266+124.34+90.0368L124.364+89.9056C125.864+90.0393+126.606+89.7179+126.22+89.4138C125.893+89.1559+124.868+89.1655+124.492+89.1782L124.533+88.946C126.074+89.0938+126.841+88.7686+126.45+88.4599" opacity="1" fill="#ffb692"/>
<path d="M83.8878+119.559L79.5441+123.99L77.2397+125.683L82.1828+130.537L82.7074+126.761L86.7213+123.838L83.8878+119.559Z" opacity="1" fill="#ffb692"/>
<path stroke="#00324c" stroke-width="0.352778" d="M83.8878+119.559L79.5441+123.99L77.2397+125.683L82.1828+130.537L82.7074+126.761L86.7213+123.838L83.8878+119.559Z" fill="none" stroke-linecap="butt" opacity="1" stroke-linejoin="miter"/>
<path d="M78.3102+124.842C78.3102+124.842+76.5739+125.981+75.6129+127.154C74.6519+128.326+77.2794+130.212+79.2839+131.46C81.288+132.708+82.2747+134.126+84.4337+134.529C86.5927+134.933+83.4322+129.964+82.2511+128.482C82.2511+128.482+82.262+128.732+80.3793+127.865C78.4965+126.999+78.3102+124.842+78.3102+124.842" opacity="1" fill="#3d3c3c"/>
<path stroke="#00324c" stroke-width="0.352778" d="M78.3102+124.842C78.3102+124.842+76.5739+125.981+75.6129+127.154C74.6519+128.326+77.2794+130.212+79.2839+131.46C81.288+132.708+82.2747+134.126+84.4337+134.529C86.5927+134.933+83.4322+129.964+82.2511+128.482C82.2511+128.482+82.262+128.732+80.3793+127.865C78.4965+126.999+78.3102+124.842+78.3102+124.842Z" fill="none" stroke-linecap="round" opacity="1" stroke-linejoin="round"/>
<path d="M106.058+96.8559C106.058+96.8559+101.387+114.606+96.1284+118.404C90.8699+122.201+84.503+126.345+84.503+126.345L79.937+121.872L89.6708+112.121C89.6708+112.121+89.7195+100.617+92.752+94.989C95.7848+89.3608+106.058+96.8559+106.058+96.8559" opacity="1" fill="#38ac83"/>
<path d="M106.03+94.9742L106.059+96.8542L88.9412+93.4792L92.6313+85.9844C92.6313+85.9844+91.7691+77.0291+94.6418+73.4823C97.5141+69.9319+102.073+70.3994+102.073+70.3994C102.073+70.3994+105.448+70.7366+106.753+75.5595C108.057+80.3855+105.897+86.3058+105.897+86.3058L105.995+92.7634L106.03+94.9742Z" opacity="1" fill="#81e9c4"/>
<path d="M103.102+70.3075L102.975+70.9027L102.704+72.1815C101.292+72.7953+99.2975+71.4847+99.2975+71.4847L99.8859+67.9947L103.102+70.3075Z" opacity="1" fill="#ffb692"/>
<path d="M106.03+94.9742C104.141+94.6564+99.2257+93.5617+96.4392+90.4541C92.94+86.5443+92.7459+81.6833+92.7459+81.6833C92.6694+81.0981+93.1435+77.9326+93.1435+77.9326C93.1435+77.9326+95.9237+83.299+97.8005+87.1803C99.388+90.4633+104.472+92.2829+105.995+92.7634L106.03+94.9742Z" opacity="1" fill="#66caa6"/>
<path d="M103.102+70.3075L102.91+71.2392C102.501+71.2085+102.046+71.1002+101.608+70.9619C100.77+70.6984+99.8538+69.8701+99.7356+68.8812L99.8859+67.9947L103.102+70.3075Z" opacity="1" fill="#d98f74"/>
<path d="M107.32+65.8645C107.32+65.8645+107.443+68.4772+106.021+69.8343C104.599+71.1918+101.349+70.6172+100.344+69.0536C99.3384+67.4898+98.8844+62.9213+98.8844+62.9213C98.8844+62.9213+101.985+60.938+103.972+60.9062C105.96+60.8745+107.249+63.1418+107.32+65.8645" opacity="1" fill="#ffb692"/>
<path d="M99.6588+65.3874C99.6588+65.3874+98.9945+64.7171+98.2653+65.1101C97.5361+65.5031+97.8861+66.941+98.6601+67.6642C99.4344+68.3871+100.435+67.9355+100.435+67.9355L99.6588+65.3874Z" opacity="1" fill="#ffb692"/>
<path d="M105.412+64.0702L105.89+65.8873C105.89+65.8873+106.361+65.512+106.556+65.7677C106.751+66.0235+106.16+66.5773+105.615+66.5724C105.071+66.5678+105.021+64.3213+105.111+63.9795C105.201+63.6376+105.345+63.8144+105.412+64.0702" opacity="1" fill="#e67e5b"/>
<path d="M106.903+62.7798C106.903+62.7798+106.803+62.3212+106.262+62.1991C105.721+62.0767+105.338+62.832+105.53+62.9378C105.722+63.0437+105.846+62.7558+106.191+62.7505C106.535+62.7449+106.743+63.0656+106.743+63.0656C106.743+63.0656+106.949+63.1058+106.903+62.7798" opacity="1" fill="#00324c"/>
<path d="M103.463+62.8298C103.463+62.8298+103.259+62.4068+102.705+62.4128C102.15+62.4191+101.952+63.2422+102.163+63.3007C102.375+63.3593+102.429+63.0506+102.763+62.9659C103.096+62.8809+103.298+63.028+103.298+63.028C103.298+63.028+103.583+63.1363+103.463+62.8298" opacity="1" fill="#00324c"/>
<path d="M102.964+64.3067C102.969+64.5998+103.096+64.8358+103.248+64.8334C103.399+64.8309+103.518+64.591+103.514+64.2978C103.509+64.0047+103.382+63.769+103.231+63.7711C103.079+63.7736+102.96+64.0131+102.964+64.3067" opacity="1" fill="#00324c"/>
<path d="M105.924+64.2595C105.928+64.5113+106.036+64.7138+106.167+64.7117C106.297+64.7096+106.4+64.5036+106.395+64.2521C106.391+63.9998+106.282+63.7973+106.152+63.7994C106.022+63.8016+105.919+64.0076+105.924+64.2595" opacity="1" fill="#00324c"/>
<path d="M101.368+61.6095C101.368+61.6095+101.739+63.2234+101.398+64.1597C101.057+65.0963+100.297+65.4618+100.297+65.4618C100.297+65.4618+100.53+66.3794+100.201+66.6941L99.181+65.0784C99.181+65.0784+98.3979+64.7467+97.9611+65.4382C97.5244+66.1293+98.54+68.0329+99.8852+67.9937L99.7014+69.0827C99.7014+69.0827+97.4372+68.4128+96.404+66.0425C95.3707+63.6725+96.6318+61.9393+96.6318+61.9393C96.6318+61.9393+96.4777+60.0005+98.7559+58.9961C101.035+57.9914+104.408+58.7887+104.408+58.7887C104.408+58.7887+105.983+57.9501+107.152+58.6701C108.897+59.7444+108.317+62+107.046+62.1598C105.775+62.3196+104.802+61.7894+104.802+61.7894C104.802+61.7894+104.855+62.459+104.08+62.3419C103.304+62.2251+103.011+61.5795+103.011+61.5795C103.011+61.5795+102.678+62.8756+101.368+61.6095" opacity="1" fill="#004670"/>
<path d="M97.9425+61.148C97.9425+61.148+98.3164+58.7107+96.8891+58.2418C95.4621+57.7723+94.1843+58.8306+93.8485+60.972C93.5119+63.113+94.7533+63.5907+96.0212+63.3762C97.2891+63.1617+97.9425+61.148+97.9425+61.148" opacity="1" fill="#004670"/>
<path d="M99.009+126.881L97.7828+132.963L96.7749+135.639L103.566+137.013L101.947+133.562L103.717+128.922L99.009+126.881Z" opacity="1" fill="#ffb692"/>
<path d="M100.732+95.8344L88.9396+93.4775C88.9396+93.4775+86.2021+101+91.7174+107.395C94.3128+110.404+98.7874+112.255+102.798+113.371C101.865+114.508+100.876+115.993+100.085+117.84C97.9542+122.821+97.77+127.48+97.77+127.48L105.344+130.178L112.258+113.204C113.214+110.858+112.692+108.169+110.929+106.35L100.732+95.8344Z" opacity="1" fill="#66caa6"/>
<path d="M97.5735+73.7831L99.9992+82.2434L94.4059+83.6171C94.4059+83.6171+92.7567+79.9814+93.3973+75.9315C94.0383+71.8813+96.6362+71.9426+97.5735+73.7831" opacity="1" fill="#66caa6"/>
<path stroke="#00324c" stroke-width="0.264583" d="M97.5735+73.7831L99.9992+82.2434L94.4059+83.6171C94.4059+83.6171+92.7567+79.9814+93.3973+75.9315C94.0383+71.8813+96.6362+71.9426+97.5735+73.7831Z" fill="none" stroke-linecap="butt" opacity="1" stroke-linejoin="miter"/>
<path d="M132.743+120.981C132.768+123.087+131.035+124.788+128.932+124.721L110.554+124.152C108.432+124.085+106.8+122.25+106.985+120.137L108.003+108.418L109.25+94.0357L109.679+89.0986C109.886+86.6905+111.935+84.8709+114.34+84.9309L115.138+81.2567L127.564+81.8296L128.175+85.6185C130.519+85.8061+132.348+87.7468+132.377+90.1136L132.428+94.3793L132.6+108.819L132.743+120.981Z" opacity="1" fill="#ffffff"/>
<path stroke="#00324c" stroke-width="0.352778" d="M132.743+120.981C132.768+123.087+131.035+124.788+128.932+124.721L110.554+124.152C108.432+124.085+106.8+122.25+106.985+120.137L108.003+108.418L109.25+94.0357L109.679+89.0986C109.886+86.6905+111.935+84.8709+114.34+84.9309L115.138+81.2567L127.564+81.8296L128.175+85.6185C130.519+85.8061+132.348+87.7468+132.377+90.1136L132.428+94.3793L132.6+108.819L132.743+120.981Z" fill="none" stroke-linecap="butt" opacity="1" stroke-linejoin="miter"/>
<path d="M132.604+109.177C130.202+109.696+125.01+110.311+119.856+110.304C114.435+110.298+109.826+109.009+108.003+108.418L109.25+94.0357C111.995+94.3825+115.956+94.8186+120.25+95.0856C125.76+95.4292+130.204+94.7991+132.428+94.3793L132.604+109.177Z" opacity="1" fill="#7088ff"/>
<path stroke="#00324c" stroke-width="0.352778" d="M132.604+109.177C130.202+109.696+125.01+110.311+119.856+110.304C114.435+110.298+109.826+109.009+108.003+108.418L109.25+94.0357C111.995+94.3825+115.956+94.8186+120.25+95.0856C125.76+95.4292+130.204+94.7991+132.428+94.3793L132.604+109.177Z" fill="none" stroke-linecap="butt" opacity="1" stroke-linejoin="miter"/>
<path d="M97.2138+134.35C97.2138+134.35+96.3792+136.252+96.2133+137.758C96.0472+139.266+99.2783+139.414+101.639+139.367C103.999+139.32+105.6+139.971+107.629+139.132C109.659+138.293+104.301+135.852+102.502+135.253C102.502+135.253+102.648+135.457+100.597+135.756C98.5463+136.057+97.2138+134.35+97.2138+134.35" opacity="1" fill="#3d3c3c"/>
<path stroke="#00324c" stroke-width="0.352778" d="M97.2138+134.35C97.2138+134.35+96.3792+136.252+96.2133+137.758C96.0472+139.266+99.2783+139.414+101.639+139.367C103.999+139.32+105.6+139.971+107.629+139.132C109.659+138.293+104.301+135.852+102.502+135.253C102.502+135.253+102.648+135.457+100.597+135.756C98.5463+136.057+97.2138+134.35+97.2138+134.35Z" fill="none" stroke-linecap="round" opacity="1" stroke-linejoin="round"/>
<path d="M112.64+80.0263L112.644+80.1261C112.688+81.2289+113.578+82.1098+114.681+82.1412L128.269+82.5282C129.329+82.5582+130.244+81.793+130.403+80.7449C130.591+79.5049+129.657+78.3788+128.404+78.334L114.812+77.8472C113.592+77.8034+112.592+78.8064+112.64+80.0263" opacity="1" fill="#7088ff"/>
<path stroke="#00324c" stroke-width="0.352778" d="M112.64+80.0263L112.644+80.1261C112.688+81.2289+113.578+82.1098+114.681+82.1412L128.269+82.5282C129.329+82.5582+130.244+81.793+130.403+80.7449C130.591+79.5049+129.657+78.3788+128.404+78.334L114.812+77.8472C113.592+77.8034+112.592+78.8064+112.64+80.0263Z" fill="none" stroke-linecap="butt" opacity="1" stroke-linejoin="miter"/>
<path d="M118.931+92.7335C118.583+92.4594+117.448+92.4876+117.142+92.5003L117.173+92.3247C118.552+92.4555+119.238+92.1638+118.887+91.8872C118.576+91.6427+117.573+91.6657+117.288+91.6773L117.287+91.6773C117.239+91.6794+117.209+91.6812+117.209+91.6812L117.208+91.6837L115.778+91.798L115.888+91.4875C115.888+91.4875+117.337+90.9869+116.943+90.6962C116.549+90.4052+115.773+90.5124+115.232+90.7633C114.69+91.0141+114.04+91.9609+114.04+91.9609L113.529+91.8625L101.981+88.3873L99.5741+82.4321L95.3348+83.4407C95.3348+83.4407+96.6376+88.8551+98.9437+91.3139C100.957+93.4602+110.548+94.4392+112.954+94.6533L112.955+94.6533C113.304+94.6844+113.503+94.6996+113.503+94.6996L113.503+94.6971L114.224+94.7549C115.914+95.301+116.699+95.0058+116.699+95.0058L116.7+94.9987C118.055+95.1074+118.718+94.8121+118.363+94.5323C118.076+94.3062+117.217+94.3002+116.822+94.3104L116.845+94.1792C118.345+94.3129+119.087+93.9915+118.701+93.6871C118.374+93.4292+117.35+93.4387+116.974+93.4518L117.015+93.2197C118.555+93.3675+119.322+93.0419+118.931+92.7335" opacity="1" fill="#ffb692"/>
<path stroke="#00324c" stroke-width="0.352778" d="M118.931+92.7335C118.583+92.4594+117.448+92.4876+117.142+92.5003L117.173+92.3247C118.552+92.4555+119.238+92.1638+118.887+91.8872C118.576+91.6427+117.573+91.6657+117.288+91.6773L117.287+91.6773C117.239+91.6794+117.209+91.6812+117.209+91.6812L117.208+91.6837L115.778+91.798L115.888+91.4875C115.888+91.4875+117.337+90.9869+116.943+90.6962C116.549+90.4052+115.773+90.5124+115.232+90.7633C114.69+91.0141+114.04+91.9609+114.04+91.9609L113.529+91.8625L101.981+88.3873L99.5741+82.4321L95.3348+83.4407C95.3348+83.4407+96.6376+88.8551+98.9437+91.3139C100.957+93.4602+110.548+94.4392+112.954+94.6533L112.955+94.6533C113.304+94.6844+113.503+94.6996+113.503+94.6996L113.503+94.6971L114.224+94.7549C115.914+95.301+116.699+95.0058+116.699+95.0058L116.7+94.9987C118.055+95.1074+118.718+94.8121+118.363+94.5323C118.076+94.3062+117.217+94.3002+116.822+94.3104L116.845+94.1792C118.345+94.3129+119.087+93.9915+118.701+93.6871C118.374+93.4292+117.35+93.4387+116.974+93.4518L117.015+93.2197C118.555+93.3675+119.322+93.0419+118.931+92.7335Z" fill="none" stroke-linecap="round" opacity="1" stroke-linejoin="round"/>
<path d="M99.4025+65.3655C100.33+65.3422+101.325+65.7698+101.839+66.0284C102.49+65.7518+104.513+64.938+105.591+65.0343C106.886+65.1496+107.301+65.4678+107.301+65.4678C107.816+68.712+105.754+70.0525+105.754+70.0525C105.754+70.0525+104.18+70.4903+102.912+69.5572C101.989+68.8781+101.732+67.3668+101.66+66.5939L99.6561+65.8104L99.4025+65.3655Z" opacity="1" fill="#ffffff"/>
<path stroke="#00324c" stroke-width="0.352778" d="M93.3725+76.0961C93.3725+76.0961+92.2793+79.2736+92.6299+85.9841C92.6299+85.9841+90.1799+90.8913+88.9399+93.4779L106.058+96.8561" fill="none" stroke-linecap="round" opacity="1" stroke-linejoin="round"/>
<path stroke="#00324c" stroke-width="0.352778" d="M99.1503+71.1333C99.1503+71.1333+100.369+72.2276+101.749+72.3451C103.13+72.4626+103.317+71.4568+103.317+71.4568" fill="none" stroke-linecap="round" opacity="1" stroke-linejoin="round"/>
<path d="M103.069+68.9765C103.732+69.6005+104.829+69.8969+105.979+69.7614C106.214+69.5561+106.589+69.1652+106.896+68.5577C107.222+67.9033+107.468+66.9939+107.356+65.7958C107.069+65.6406+106.521+65.4328+105.596+65.3912C104.082+65.3221+102.393+66.331+102.393+66.331C102.393+66.331+102.229+68.1834+103.069+68.9765" opacity="1" fill="#b1e7ff"/>
<path d="M103.069+68.9765C103.732+69.6005+104.829+69.8969+105.979+69.7614C106.214+69.5561+106.589+69.1652+106.896+68.5577C106.316+68.8269+105.292+69.1261+104.241+68.58C102.639+67.7481+102.393+66.331+102.393+66.331C102.393+66.331+102.229+68.1834+103.069+68.9765" opacity="1" fill="#93d3ec"/>
<path stroke="#00324c" stroke-width="0.352778" d="M106.743+63.0656C106.743+63.0656+108.015+66.3147+106.896+68.6585C105.777+71.0027+100.788+71.3925+99.8853+67.9935L99.335+71.0877" fill="none" stroke-linecap="round" opacity="1" stroke-linejoin="round"/>
<path stroke="#00324c" stroke-width="0.352778" d="M103.104+70.5497L102.704+72.1813" fill="none" stroke-linecap="round" opacity="1" stroke-linejoin="round"/>
<path stroke="#00324c" stroke-width="0.352778" d="M100.435+65.3807C100.435+65.3807+102.072+64.4412+101.368+61.6095C101.368+61.6095+101.949+62.2233+102.437+62.1591C102.925+62.0953+103.011+61.5795+103.011+61.5795C103.011+61.5795+103.63+62.4135+104.164+62.351C104.698+62.2882+104.802+61.7894+104.802+61.7894C104.802+61.7894+106.277+62.5384+107.208+62.2314C108.14+61.9249+108.84+60.0481+107.479+58.9072C106.118+57.7667+104.408+58.7887+104.408+58.7887C104.408+58.7887+102.107+58.1971+100.107+58.6066C98.1077+59.0162+97.1079+59.9782+96.7675+60.9061C96.4264+61.8339+96.5625+62.2769+96.5625+62.2769C96.5625+62.2769+95.8591+62.9564+96.1424+64.89C96.5967+67.9948+99.668+68.9977+99.668+68.9977" fill="none" stroke-linecap="round" opacity="1" stroke-linejoin="round"/>
<path stroke="#00324c" stroke-width="0.352778" d="M95.5915+72.4958C95.5915+72.4958+97.482+70.9182+99.4026+70.5968" fill="none" stroke-linecap="round" opacity="1" stroke-linejoin="round"/>
<path stroke="#00324c" stroke-width="0.352778" d="M104.631+71.744C104.631+71.744+107.344+74.877+107.157+78.318C106.971+81.7593+105.899+86.4922+105.899+86.4922L105.899+89.5666" fill="none" stroke-linecap="round" opacity="1" stroke-linejoin="round"/>
<path stroke="#00324c" stroke-width="0.352778" d="M101.419+88.9887L100.495+89.817" fill="none" stroke-linecap="round" opacity="1" stroke-linejoin="round"/>
<path stroke="#00324c" stroke-width="0.352778" d="M105.899+86.492C105.899+86.492+107.376+88.2348+109.746+88.6168" fill="none" stroke-linecap="round" opacity="1" stroke-linejoin="round"/>
<path stroke="#00324c" stroke-width="0.352778" d="M108.244+85.1815L109.5+84.1137" fill="none" stroke-linecap="round" opacity="1" stroke-linejoin="round"/>
<path stroke="#00324c" stroke-width="0.352778" d="M88.9397+93.4777C88.9397+93.4777+86.0882+102.204+91.7175+107.395C97.3468+112.586+103.198+113.372+103.198+113.372" fill="none" stroke-linecap="round" opacity="1" stroke-linejoin="round"/>
<path stroke="#00324c" stroke-width="0.352778" d="M105.254+111.828C104.783+112.069+102.035+113.634+100.495+117.127C98.8789+120.793+97.7698+127.48+97.7698+127.48L105.344+130.178L108.123+123.354" fill="none" stroke-linecap="round" opacity="1" stroke-linejoin="round"/>
<path d="M96.9716+62.5269C96.9716+62.5269+97.0626+62.8906+97.5396+62.5269C98.0169+62.1636+97.892+61.6182+97.7103+61.4929C97.5283+61.3681+97.142+61.4249+97.142+61.4249C97.142+61.4249+97.7329+59.8229+99.869+59.3798C102.005+58.9367+104.311+59.3798+104.311+59.3798C104.311+59.3798+105.163+58.8573+106.072+58.9367C106.981+59.0164+107.822+59.5844+107.708+60.6636C107.594+61.7431+106.311+61.7431+105.652+61.4704C104.993+61.1977+104.675+60.9592+104.561+61.1296C104.447+61.3+104.72+61.8679+104.175+61.7999C103.63+61.7318+103.243+60.9705+102.971+60.9705C102.698+60.9705+102.732+61.6295+102.403+61.5727C102.073+61.5159+102.039+60.9818+101.266+61.0841C100.494+61.1864+100.664+61.6182+100.869+62.3565C101.073+63.0949+100.823+64.2654+100.641+64.5833C100.46+64.9015+99.3349+65.3223+99.3349+65.3223L99.1811+65.0786C99.1811+65.0786+98.3831+64.7607+97.9954+65.3876C97.608+66.0148+98.4713+67.8616+99.6757+67.995L99.3349+68.4917C99.3349+68.4917+97.4715+67.5219+97.0739+65.7517C96.6763+63.9814+96.8129+63.0494+96.9716+62.5269" opacity="1" fill="#00324c"/>
<path d="M95.997+62.8606C95.997+62.8606+94.7563+63.0155+94.5972+61.3906C94.4381+59.7664+95.4036+58.7666+96.2446+58.7095C97.0853+58.6527+97.5168+59.8119+97.5168+59.8119C97.5168+59.8119+96.6764+60.7887+96.5286+61.5158C96.3808+62.2429+96.4577+62.4129+96.4577+62.4129C96.4577+62.4129+96.4094+62.9005+95.997+62.8606" opacity="1" fill="#00324c"/>
<path d="M94.938+73.5475C94.938+73.5475+94.2561+76.6378+94.938+79.2963C95.6199+81.9552+97.4992+82.7218+97.4992+82.7218L94.485+83.4841C94.485+83.4841+93.0485+78.898+93.402+76.8428C93.402+76.8428+93.6228+74.8093+94.1975+73.7926C94.7722+72.7759+95.7113+72.6987+95.7113+72.6987C95.7113+72.6987+95.0925+73.0038+94.938+73.5475" opacity="1" fill="#38ac83"/>
<path d="M101.234+81.5459L106.436+81.5459C106.436+81.5459+106.266+82.3975+104.254+82.4321C102.243+82.4663+101.234+81.5459+101.234+81.5459" opacity="1" fill="#66caa6"/>
<path stroke="#00324c" stroke-width="0.352778" d="M100.957+95.8489L108.407+103.749" fill="none" stroke-linecap="round" opacity="1" stroke-linejoin="round"/>
<path stroke="#00324c" stroke-width="0.352778" d="M104.016+66.1739C104.016+66.1739+104.953+65.7139+106.572+65.9693" fill="none" stroke-linecap="round" opacity="1" stroke-linejoin="round"/>
<path stroke="#00324c" stroke-width="0.352778" d="M90.0825+105.592L89.6708+112.121L92.9978+114.431" fill="none" stroke-linecap="butt" opacity="1" stroke-linejoin="miter"/>
<path stroke="#00324c" stroke-width="0.352778" d="M79.937+121.872L84.503+126.345C84.503+126.345+94.2033+120.598+96.7747+117.864C99.3465+115.131+100.309+112.644+100.309+112.644" fill="none" stroke-linecap="butt" opacity="1" stroke-linejoin="miter"/>
<path stroke="#00324c" stroke-width="0.352778" d="M98.9409+127.897L97.783+132.963L97.2137+134.35C97.2137+134.35+97.9347+135.682+99.8334+135.779C101.732+135.876+102.787+135.353+102.787+135.353L102.02+133.368L103.436+129.66" fill="none" stroke-linecap="round" opacity="1" stroke-linejoin="round"/>
<path d="M109.231+110.722C109.231+110.722+107.663+118.604+109.231+121.003C110.798+123.401+126.682+123.401+129.068+122.515C131.454+121.629+128.377+120.25+120.304+120.088C112.23+119.925+110.919+119.514+110.756+116.89C110.594+114.267+110.877+108.207+109.231+110.722" opacity="1" fill="#ededed"/>
<path d="M116.392+84.6451C116.197+85.604+116.87+86.5212+117.843+86.6218C120.171+86.862+124.16+87.3619+126.295+88.1359C129.431+89.2718+129.431+93.3164+129.84+93.7708C130.249+94.2252+131.431+94.0929+131.567+93.4776C131.704+92.862+131.34+89.6355+130.022+87.8628C129.297+86.8881+128.435+86.3946+127.806+86.1476C127.247+85.9285+126.859+85.4131+126.771+84.8191L126.759+84.7333C126.639+83.9205+125.942+83.3183+125.12+83.3183L118.015+83.3183C117.227+83.3183+116.548+83.8733+116.392+84.6451" opacity="1" fill="#ededed"/>
<path d="M113.821+79.9553C113.821+79.9553+114.093+81.2278+117.297+81.5686C120.501+81.9097+127.613+82.2956+128.591+81.5686C129.568+80.8415+124.614+80.9099+121.319+80.6372C118.025+80.3645+115.174+79.6145+114.691+79.5009C114.207+79.3873+113.73+79.2057+113.821+79.9553" opacity="1" fill="#4c68d5"/>
<path d="M112.73+95.8489C112.73+95.8489+111.561+102.951+114.691+105.337C117.82+107.723+131.325+106.559+131.594+107.55C131.862+108.541+125.182+110.239+117.615+109.39C110.049+108.541+109.701+107.155+109.5+106.621C109.299+106.087+109.776+95.0598+110.39+95.0855C111.003+95.1116+112.276+95.155+112.73+95.8489" opacity="1" fill="#4c68d5"/>
</g>
</g>
</g>
<text x="0" font-family="Alatsi" y="0" text-anchor="start" vectornator:text="VACCINE" fill="#ffffff" font-size="4.39662" vectornator:width="22.2202" opacity="1" transform="matrix(1 0 0 1 111.2 98.3193)">
<tspan x="0" y="4" textLength="19.2202">
VACCINE</tspan>
</text>
<g opacity="1" vectornator:mask="#Mask_2">
<clipPath id="ClipPath_2">
<use xlink:href="#Mask_2" fill="none" overflow="visible"/>
</clipPath>
<g clip-path="url(#ClipPath_2)">
<g opacity="1">
<path d="M39.4471+107.481L25.3096+105.984L25.6461+106.732L38.8488+108.64L39.4471+107.481Z" opacity="1" fill="#ffffff"/>
<path stroke="#00324c" stroke-width="0.352778" d="M39.4471+107.481L25.3096+105.984L25.6461+106.732L38.8488+108.64L39.4471+107.481Z" fill="none" stroke-linecap="butt" opacity="1" stroke-linejoin="miter"/>
<path d="M53.5076+117.439L51.9441+117.638C51.9441+117.638+49.9731+117.85+49.0707+117.592C48.1687+117.334+48.1352+116.67+48.1352+116.67C48.1352+116.67+47.7411+116.421+47.5492+115.998C47.3569+115.574+47.4494+115.333+47.4494+115.333L47.4391+114.755L52.9492+115.698L53.5076+117.439Z" opacity="1" fill="#ffb692"/>
<path stroke="#00324c" stroke-width="0.352778" d="M53.5076+117.439L51.9441+117.638C51.9441+117.638+49.9731+117.85+49.0707+117.592C48.1687+117.334+48.1352+116.67+48.1352+116.67C48.1352+116.67+47.7411+116.421+47.5492+115.998C47.3569+115.574+47.4494+115.333+47.4494+115.333L47.4391+114.755L52.9492+115.698L53.5076+117.439Z" fill="none" stroke-linecap="butt" opacity="1" stroke-linejoin="miter"/>
<path d="M65.1551+154.147C65.1551+154.147+56.7537+157.026+58.2523+158.388C58.7095+158.804+70.2743+158.4+70.2743+158.4C70.9594+157.569+69.6047+154.147+69.6047+154.147L65.1551+154.147Z" opacity="1" fill="#3d3c3c"/>
<path stroke="#00324c" stroke-width="0.352778" d="M65.1551+154.147C65.1551+154.147+56.7537+157.026+58.2523+158.388C58.7095+158.804+70.2743+158.4+70.2743+158.4C70.9594+157.569+69.6047+154.147+69.6047+154.147L65.1551+154.147Z" fill="none" stroke-linecap="butt" opacity="1" stroke-linejoin="miter"/>
<path d="M104.19+146.704L99.2142+151.218L97.3343+152.923C97.3343+152.923+84.7052+146.297+81.3711+137.803C80.1879+134.787+79.4177+131.349+78.9186+128.164C78.0119+122.378+77.9925+117.44+77.9925+117.44C77.9925+117.44+95.8586+107.365+97.3822+111.161C97.7989+112.198+98.0437+113.295+98.152+114.431C98.3206+116.142+98.1742+117.933+97.837+119.699C96.5296+126.586+92.3206+133.095+92.3206+133.095L104.19+146.704Z" opacity="1" fill="#2f52b1"/>
<path d="M68.8054+116.922C66.3366+122.009+55.4887+123.354+55.4887+123.354L54.8304+121.407L52.4986+114.526L62.9711+111.011L66.7092+100.812L68.7577+95.2166L69.3335+93.6449C69.3335+93.6449+69.3621+93.912+69.4069+94.3893C69.7378+97.8536+70.975+112.449+68.8054+116.922" opacity="1" fill="#dadada"/>
<path d="M99.2144+151.218L97.3344+152.923C97.3344+152.923+84.705+146.297+81.3712+137.803C80.1877+134.787+79.4179+131.349+78.9187+128.164C80.1305+124.512+81.9819+122.307+81.9819+122.307L98.1518+114.431C98.3208+116.142+98.1744+117.933+97.8371+119.699C94.2296+123.523+88.026+130.407+86.2068+134.351C83.9733+139.19+95.7219+148.571+99.2144+151.218" opacity="1" fill="#1d4695"/>
<path d="M53.2062+116.614L61.0198+118.118C61.0198+118.118+61.7226+117.838+61.8401+117.455L52.9162+115.758L53.2062+116.614Z" opacity="1" fill="#c6c6c6"/>
<path d="M68.8054+116.922C66.3366+122.009+55.4887+123.354+55.4887+123.354L54.8304+121.407C56.6532+120.777+62.8854+118.293+65.4173+112.885C67.3897+108.673+67.1194+103.698+66.7092+100.812L68.7577+95.2166L69.4069+94.3893C69.7378+97.8536+70.975+112.449+68.8054+116.922" opacity="1" fill="#c6c6c6"/>
<path d="M91.8278+107.292L88.2425+109.411L76.9652+116.078C76.5327+115.624+76.0713+115.029+75.5975+114.335C72.4384+109.7+68.7289+100.491+69.3336+96.5713C70.0303+92.0606+72.0408+90.6707+72.0408+90.6707L74.6397+89.2169C74.6397+89.2169+74.7798+89.1911+75.0341+89.1721C75.5273+89.134+76.4403+89.1086+77.5632+89.2931C79.1983+89.5665+81.279+90.2922+83.1304+92.0924C86.9033+95.7574+91.8278+107.292+91.8278+107.292" opacity="1" fill="#b1e7ff"/>
<path d="M74.9094+89.5757L72.701+92.091L72.0621+91.4352L70.7607+90.0975L73.3142+87.4594L73.7809+88.0789L74.9094+89.5757Z" opacity="1" fill="#ffb692"/>
<path d="M89.9319+108.071L88.2425+109.411L76.9652+116.078C76.5327+115.624+76.0713+115.029+75.5975+114.335C76.1955+113.41+76.9081+111.673+77.239+108.498C77.8655+102.517+74.3409+90.2251+74.3409+90.2251L75.0345+89.1721C75.5273+89.134+76.4403+89.1086+77.5632+89.2931L89.9319+108.071Z" opacity="1" fill="#93d3ec"/>
<path d="M73.781+88.0789C73.4857+89.073+72.8877+90.7557+72.0619+91.4352L70.7608+90.0975L73.3139+87.4594L73.781+88.0789Z" opacity="1" fill="#d98f74"/>
<path d="M64.9093+85.4041C64.9093+85.4041+64.8173+88.3491+66.4432+89.8519C68.0688+91.3551+71.7194+90.6495+72.8235+88.8705C73.9277+87.0914+74.3574+81.9377+74.3574+81.9377C74.3574+81.9377+70.8296+79.76+68.5906+79.76C66.3511+79.76+64.94+82.3367+64.9093+85.4041" opacity="1" fill="#ffb692"/>
<path d="M73.5291+84.7292C73.5291+84.7292+74.2654+83.9623+75.0937+84.392C75.9217+84.8216+75.5537+86.4472+74.6947+87.2756C73.8361+88.1035+72.7008+87.6128+72.7008+87.6128L73.5291+84.7292Z" opacity="1" fill="#ffb692"/>
<path d="M67.0258+83.3491L66.5196+85.404C66.5196+85.404+65.983+84.9898+65.7682+85.2816C65.5533+85.573+66.2282+86.1865+66.842+86.1709C67.4555+86.1558+67.4707+83.6249+67.3634+83.2415C67.2558+82.858+67.0971+83.0601+67.0258+83.3491" opacity="1" fill="#e67e5b"/>
<path d="M69.199+81.917C69.199+81.917+69.4205+81.4368+70.0453+81.434C70.6701+81.4312+70.9082+82.3544+70.6708+82.4243C70.4337+82.4941+70.3674+82.1473+69.9899+82.0577C69.6125+81.9681+69.3881+82.1375+69.3881+82.1375C69.3881+82.1375+69.0692+82.2645+69.199+81.917" opacity="1" fill="#00324c"/>
<path d="M75.4892+84.868C75.4892+84.868+75.4127+84.6486+75.2091+84.4701C75.0472+84.3272+74.802+84.2129+74.4489+84.2665C73.6601+84.3907+73.3768+85.7112+73.3768+85.7112L72.7026+85.7112L72.7026+84.9058C72.7026+84.9058+71.6972+84.4669+71.5825+83.3888C71.4651+82.3072+71.869+80.6463+71.869+80.6463C71.2358+80.2519+67.7175+79.8893+66.9283+80.3123C66.48+80.5511+66.2256+80.9328+66.0856+81.2189C65.9804+81.4355+65.9455+81.5974+65.9455+81.5974C65.4971+81.2605+65.7261+80.513+65.7261+80.513C65.3027+80.3952+64.5171+79.9147+64.7016+79.5682C64.8861+79.2243+65.5543+79.1544+65.5543+79.1544C65.2777+78.9477+64.8163+78.0506+66.1237+78.095C67.4279+78.143+70.8223+77.1281+73.2593+77.6117C75.6991+78.095+75.6547+80.7642+75.6547+80.7642C76.138+80.9709+76.1828+81.203+76.2526+81.7407C76.3196+82.2815+75.4892+84.868+75.4892+84.868" opacity="1" fill="#004670"/>
<path d="M69.7867+83.5713C69.7867+83.9018+69.6481+84.1692+69.4773+84.1692C69.3066+84.1692+69.168+83.9018+69.168+83.5713C69.168+83.2407+69.3066+82.9733+69.4773+82.9733C69.6481+82.9733+69.7867+83.2407+69.7867+83.5713" opacity="1" fill="#00324c"/>
<path d="M66.4531+83.5713C66.4531+83.8553+66.3342+84.0853+66.1874+84.0853C66.0407+84.0853+65.9218+83.8553+65.9218+83.5713C65.9218+83.2873+66.0407+83.0573+66.1874+83.0573C66.3342+83.0573+66.4531+83.2873+66.4531+83.5713" opacity="1" fill="#00324c"/>
<path d="M73.8158+84.6992L73.5392+85.2051L71.2962+86.1244C71.2296+86.9962+70.9689+88.7015+69.9412+89.4839C68.5287+90.5589+66.7472+90.0946+66.7472+90.0946C66.7472+90.0946+66.6424+90.0276+66.4833+89.8879C65.9139+89.3979+64.6351+87.9825+64.8831+85.3385C64.8926+85.2146+64.9053+85.0876+64.9244+84.9567C64.9244+84.9567+65.3858+84.5909+66.8428+84.4385C68.0546+84.3112+70.3483+85.1892+71.0832+85.4916C71.6589+85.1892+72.7723+84.69+73.8158+84.6992" opacity="1" fill="#ffffff"/>
<path d="M44.6825+106.65L44.6825+111.319L42.7133+110.855L38.0273+109.748L38.2245+107.759L38.3741+106.274L44.6825+106.65Z" opacity="1" fill="#7088ff"/>
<path stroke="#00324c" stroke-width="0.352778" d="M44.6825+106.65L44.6825+111.319L42.7133+110.855L38.0273+109.748L38.2245+107.759L38.3741+106.274L44.6825+106.65Z" fill="none" stroke-linecap="butt" opacity="1" stroke-linejoin="miter"/>
<path d="M71.6574+91.0192C71.6574+91.0192+70.7606+93.9572+71.6472+103.307C72.3157+110.356+79.7258+119.853+79.7258+119.853L72.3206+122.307C72.3206+122.307+67.3528+103.211+67.8541+97.9503C68.3561+92.6854+71.3191+90.6714+71.3191+90.6714L71.6574+91.0192Z" opacity="1" fill="#ffffff"/>
<path d="M94.9104+119.46C94.0101+126.176+72.9729+136.19+72.9729+136.19L71.4743+154.291L61.4029+154.291C61.4029+154.291+61.3584+154.17+61.2819+153.944C60.6998+152.255+58.2247+144.665+58.2596+137.87C58.2695+135.16+58.6862+132.57+59.7773+130.537C59.911+130.289+60.051+130.041+60.1971+129.796C63.1682+124.808+68.3664+121.019+71.4235+119.085C72.89+118.156+73.8669+117.656+73.8669+117.656L79.7456+114.052L91.6878+106.732L91.8691+106.621C91.8691+106.621+92.0505+106.901+92.3242+107.407C93.3356+109.267+95.6199+114.183+94.9104+119.46" opacity="1" fill="#4c68d5"/>
<path d="M94.9104+119.46C94.0101+126.176+72.9729+136.19+72.9729+136.19L71.4743+154.291L66.5785+154.291C67.4407+152.523+68.85+149.306+70.059+145.021C71.9548+138.293+68.9453+136.021+69.2667+134.931C69.5912+133.839+79.8249+130.149+86.2067+125.225C91.3156+121.28+83.1908+116.002+79.7456+114.052C78.8866+113.569+78.3172+113.289+78.3172+113.289L90.5522+105.851C90.5522+105.851+91.0133+106.09+91.6878+106.732C91.885+106.923+92.1013+107.146+92.3242+107.407C93.3356+109.267+95.6199+114.183+94.9104+119.46" opacity="1" fill="#2f52b1"/>
<path d="M72.7883+119.559C72.7883+119.559+63.0523+125.302+60.8672+132.409C59.1238+138.072+60.7889+149.888+61.2821+153.944C60.6996+152.255+58.2249+144.665+58.2598+137.87C58.2693+135.16+58.686+132.57+59.7771+130.537C59.9108+130.289+60.0509+130.041+60.1973+129.796C63.1684+124.808+68.1164+121.178+71.1736+119.244L72.7883+119.559Z" opacity="1" fill="#6283e4"/>
<path d="M104.48+107.89L96.4912+116.196L92.9765+119.852C92.0473+119.409+91.1565+118.868+90.301+118.242C79.5547+110.372+74.6335+89.2071+74.6335+89.2071C75.8234+88.9111+77.0669+88.921+78.3172+89.2071C81.0149+89.8178+83.7507+91.6882+86.0762+94.4529C88.322+97.122+95.6072+102.113+100.309+105.206C102.739+106.802+104.48+107.89+104.48+107.89" opacity="1" fill="#ffffff"/>
<path d="M100.309+105.205C100.032+105.791+99.7011+106.509+99.3133+107.391C98.2667+109.764+97.2422+113.308+96.4915+116.196L92.9764+119.852C92.0472+119.409+91.1568+118.868+90.3009+118.242C90.5331+115.903+90.5331+111.113+88.1536+104.423C84.6921+94.7011+78.3171+89.207+78.3171+89.207C81.0151+89.818+83.7506+91.6884+86.0761+94.4531C88.3219+97.1219+95.6071+102.113+100.309+105.205" opacity="1" fill="#dadada"/>
<path d="M81.7181+107.68C81.7146+107.677+81.7146+107.677+81.7146+107.674C81.68+107.614+81.1255+106.972+80.6517+106.1C80.0724+105.022+79.4371+103.84+78.5908+102.12C78.5876+102.116+78.432+101.847+78.432+101.847C77.3567+99.6614+76.4529+97.1948+75.7692+95.191C74.0798+90.2507+74.3567+88.8442+74.3567+88.8442L76.3831+88.9906L79.7867+94.1761L77.8559+97.09L81.1992+99.6667L81.6927+107.267L81.7181+107.68Z" opacity="1" fill="#ededed"/>
<path d="M46.985+104.29L82.9535+108.027L81.0337+121.38L45.4931+114.348C42.8018+113.836+40.9987+111.285+41.4143+108.577C41.827+105.889+44.2806+104.001+46.985+104.29" opacity="1" fill="#ffffff"/>
<path stroke="#00324c" stroke-width="0.264583" d="M46.985+104.29L82.9535+108.027L81.0337+121.38L45.4931+114.348C42.8018+113.836+40.9987+111.285+41.4143+108.577C41.827+105.889+44.2806+104.001+46.985+104.29Z" fill="none" stroke-linecap="round" opacity="1" stroke-linejoin="round"/>
<path d="M81.1996+113.289L96.1006+115.707L95.455+117.413L80.5308+115.872L81.1996+113.289Z" opacity="1" fill="#ffffff"/>
<path d="M96.3195+109.3L94.1118+114.024L88.3446+111.479L87.3011+111.017L90.1257+100.16C90.1257+100.16+80.5567+92.9738+78.3172+89.2072C78.3172+89.2072+79.0969+89.258+80.369+89.4393C83.1877+89.8436+88.4239+90.8931+92.9473+93.4733C94.4268+94.3161+95.5243+95.3434+96.3071+96.4825C97.1277+97.6721+97.6078+98.983+97.8308+100.335C98.3462+103.437+97.5126+106.751+96.3195+109.3" opacity="1" fill="#ffffff"/>
<path d="M88.5904+111.587L88.2531+112.632C88.2531+112.632+86.2162+113.139+85.8694+113.936C85.523+114.733+86.1026+115.369+86.1026+115.369C86.1026+115.369+85.766+117.164+86.3831+117.632C87.0004+118.099+87.6548+117.463+87.6548+117.463C87.6548+117.463+87.954+117.844+88.6648+117.803C89.3753+117.763+89.557+117.333+89.557+117.333C89.557+117.333+90.1236+117.463+90.5158+117.183C90.9085+116.902+91.4017+114.755+91.0771+113.648L91.3904+112.823L88.5904+111.587Z" opacity="1" fill="#ffb692"/>
<path stroke="#00324c" stroke-width="0.352778" d="M88.5904+111.587L88.2531+112.632C88.2531+112.632+86.2162+113.139+85.8694+113.936C85.523+114.733+86.1026+115.369+86.1026+115.369C86.1026+115.369+85.766+117.164+86.3831+117.632C87.0004+118.099+87.6548+117.463+87.6548+117.463C87.6548+117.463+87.954+117.844+88.6648+117.803C89.3753+117.763+89.557+117.333+89.557+117.333C89.557+117.333+90.1236+117.463+90.5158+117.183C90.9085+116.902+91.4017+114.755+91.0771+113.648L91.3904+112.823L88.5904+111.587Z" fill="none" stroke-linecap="butt" opacity="1" stroke-linejoin="miter"/>
<path d="M99.1786+151.15L98.3982+154.366C98.3982+154.366+95.4779+155.638+95.0475+156.557C94.6168+157.476+96.4248+157.935+99.1786+157.829C101.932+157.723+103.133+155.249+104.087+153.377C105.041+151.504+105.36+150.797+105.36+150.585C105.36+150.373+102.626+148.023+102.626+148.023L99.1786+151.15Z" opacity="1" fill="#3d3c3c"/>
<path stroke="#00324c" stroke-width="0.352778" d="M99.1786+151.15L98.3982+154.366C98.3982+154.366+95.4779+155.638+95.0475+156.557C94.6168+157.476+96.4248+157.935+99.1786+157.829C101.932+157.723+103.133+155.249+104.087+153.377C105.041+151.504+105.36+150.797+105.36+150.585C105.36+150.373+102.626+148.023+102.626+148.023L99.1786+151.15Z" fill="none" stroke-linecap="butt" opacity="1" stroke-linejoin="miter"/>
<path d="M94.8518+115.898L96.1007+112.884L97.2331+113.155L95.726+120.088L94.6409+120.088L94.8518+115.898Z" opacity="1" fill="#ffffff"/>
<path d="M91.3888+100.303L88.3444+111.479L87.3008+111.017L90.1259+100.16C90.1259+100.16+80.5568+92.9738+78.317+89.2072C78.317+89.2072+79.0966+89.258+80.3691+89.4393C80.9544+90.5943+81.807+92.6079+84.6349+94.7581C89.7248+98.62+92.4959+98.8937+93.8159+98.8461C95.1329+98.8017+91.3888+100.303+91.3888+100.303" opacity="1" fill="#ededed"/>
<path d="M75.6482+82.4342C75.4923+83.2167+75.2697+84.1999+75.209+84.4701C75.0471+84.3273+74.8022+84.213+74.4491+84.2666C73.6599+84.3908+73.377+85.7112+73.377+85.7112L73.1064+85.7112L72.9791+84.2602C72.9791+84.2602+72.0566+83.7102+71.9899+82.4342C71.9229+81.1586+72.2086+80.8002+72.2086+80.8002C71.5754+80.4058+67.7178+79.8893+66.9286+80.3123C66.4799+80.5511+66.2255+80.9328+66.0855+81.2189C66.0537+81.2443+66.0347+81.2574+66.0347+81.2574C66.0347+81.2574+65.8533+80.8182+66.0347+80.4428C66.0347+80.4428+65.4462+80.3857+65.2423+79.9306C65.0356+79.4759+66.356+79.5203+66.356+79.5203C66.356+79.5203+65.726+79.0783+65.92+78.6712C66.1172+78.2605+67.1512+78.6359+68.7736+78.5117C70.3992+78.3847+71.592+77.8503+72.9092+77.9649C74.2293+78.0792+74.9324+79.3072+75.1839+80.023C75.1839+80.023+74.5793+79.727+74.4678+80.4301C74.3535+81.1364+75.136+81.674+75.6482+81.238C75.6482+81.238+75.8295+81.5149+75.6482+82.4342" opacity="1" fill="#00324c"/>
<path d="M88.6093+112.052L91.0188+113.354L91.294+112.781L88.731+111.664L88.6093+112.052Z" opacity="1" fill="#d98f74"/>
<path d="M75.0915+84.8842C75.0915+84.8842+74.6854+84.7932+74.3574+85.1569C74.0293+85.5206+73.9781+85.9182+73.9781+85.9182C73.9781+85.9182+74.2452+85.9581+74.2963+86.2304C74.3475+86.5035+73.8931+86.7137+73.8931+86.7137C73.8931+86.7137+73.7929+87.0542+74.1298+87.0316C74.4667+87.0086+74.7507+86.4012+74.6883+86.0544C74.6258+85.708+74.2963+85.6+74.2963+85.6C74.2963+85.6+75.228+84.9805+75.0915+84.8842" opacity="1" fill="#d98f74"/>
<path d="M97.8308+100.335C96.5806+100.281+95.5882+99.298+95.5882+98.0954C95.5882+97.4621+95.8648+96.8896+96.3072+96.4825C97.1277+97.672+97.6079+98.9829+97.8308+100.335" opacity="1" fill="#ededed"/>
<path d="M69.8648+88.9877C69.095+89.7031+67.8194+90.0435+66.4834+89.8879C66.2096+89.6526+65.7736+89.2039+65.4177+88.5072C65.0388+87.7565+64.7527+86.7129+64.8828+85.3385C65.2173+85.1604+65.8533+84.9222+66.9286+84.8743C68.6879+84.7945+70.6508+85.9524+70.6508+85.9524C70.6508+85.9524+70.8416+88.0778+69.8648+88.9877" opacity="1" fill="#b1e7ff"/>
<path d="M69.8648+88.9877C69.095+89.7031+67.8194+90.0435+66.4834+89.8879C66.2096+89.6526+65.7736+89.2039+65.4177+88.5072C66.0918+88.8159+67.2817+89.1591+68.5034+88.5326C70.3643+87.5783+70.6508+85.9524+70.6508+85.9524C70.6508+85.9524+70.8416+88.0778+69.8648+88.9877" opacity="1" fill="#93d3ec"/>
<path d="M92.3207+133.095L90.7699+135.704C90.7699+135.704+92.597+135.946+93.5921+134.553L92.3207+133.095Z" opacity="1" fill="#1d4695"/>
<path d="M70.9453+90.2872L69.3334+96.5712L70.7608+98.8022L69.9318+101.821L71.1979+106.882L72.4912+107.02C72.4912+107.02+70.994+99.0163+71.2607+95.3326C71.527+91.6482+71.6575+91.0192+71.6575+91.0192L70.9453+90.2872Z" opacity="1" fill="#ededed"/>
<path d="M64.7018+107.55L63.6519+114.138L63.2638+116.581L46.079+113.302C44.0494+112.913+42.6782+111.008+42.9551+108.962L42.9551+108.953C43.2412+106.866+45.1406+105.383+47.2371+105.616L64.7018+107.55Z" opacity="1" fill="#b4c0ff"/>
<path d="M81.4983+109.074L80.5822+115.544C77.2643+115.614+71.8911+115.372+63.652+114.138L64.7019+107.55L81.4983+109.074Z" opacity="1" fill="#ededed"/>
<path d="M80.5823+115.544L79.9363+120.115L63.2637+116.581L63.6517+114.138C71.8912+115.372+77.2644+115.614+80.5823+115.544" opacity="1" fill="#dadada"/>
<path d="M63.6519+114.138L63.2638+116.581L46.0789+113.301C44.0494+112.913+42.6782+111.008+42.9551+108.962L42.9551+108.953C46.1523+110.311+52.3492+112.395+62.9107+114.024C63.1618+114.062+63.407+114.1+63.6519+114.138" opacity="1" fill="#9eb1f0"/>
<path stroke="#7088ff" stroke-width="0.352778" d="M47.2334+107.55L46.7561+111.086" fill="none" stroke-linecap="round" opacity="1" stroke-linejoin="round"/>
<path stroke="#7088ff" stroke-width="0.352778" d="M50.1405+108.016L49.6632+111.553" fill="none" stroke-linecap="round" opacity="1" stroke-linejoin="round"/>
<path stroke="#7088ff" stroke-width="0.352778" d="M52.9758+108.499L52.4985+112.036" fill="none" stroke-linecap="round" opacity="1" stroke-linejoin="round"/>
<path stroke="#7088ff" stroke-width="0.352778" d="M55.811+108.983L55.3337+112.519" fill="none" stroke-linecap="round" opacity="1" stroke-linejoin="round"/>
<path stroke="#7088ff" stroke-width="0.352778" d="M58.6461+109.466L58.1688+113.002" fill="none" stroke-linecap="round" opacity="1" stroke-linejoin="round"/>
<path stroke="#7088ff" stroke-width="0.352778" d="M61.4815+109.949L61.0042+113.486" fill="none" stroke-linecap="round" opacity="1" stroke-linejoin="round"/>
<path stroke="#00324c" stroke-width="0.264583" d="M78.3171+89.2071C78.3171+89.2071+80.6197+92.338+83.8896+95.0855C87.1595+97.8329+90.126+100.16+90.126+100.16L87.3009+111.017L94.1117+114.024" fill="none" stroke-linecap="round" opacity="1" stroke-linejoin="round"/>
<path stroke="#00324c" stroke-width="0.264583" d="M81.7147+107.674C75.6367+99.2111+74.3568+88.8444+74.3568+88.8444L76.3831+88.9908L79.7867+94.1759L77.856+97.0902L81.1993+99.6669L81.4984+104.261" fill="none" stroke-linecap="round" opacity="1" stroke-linejoin="round"/>
<path stroke="#00324c" stroke-width="0.264583" d="M81.0336+121.38L82.9534+108.027L62.4443+105.896" fill="none" stroke-linecap="round" opacity="1" stroke-linejoin="round"/>
<path stroke="#00324c" stroke-width="0.264583" d="M82.1767+113.431L85.8695+113.936" fill="none" stroke-linecap="round" opacity="1" stroke-linejoin="round"/>
<path stroke="#00324c" stroke-width="0.264583" d="M91.1694+114.907L95.0045+115.53L96.1009+112.884L97.2329+113.155L95.7259+120.088" fill="none" stroke-linecap="round" opacity="1" stroke-linejoin="round"/>
<path stroke="#00324c" stroke-width="0.264583" d="M71.6574+91.0192C71.6574+91.0192+70.9907+94.4401+71.4052+99.4386C71.8193+104.437+72.4914+107.02+72.4914+107.02" fill="none" stroke-linecap="round" opacity="1" stroke-linejoin="round"/>
<path stroke="#00324c" stroke-width="0.264583" d="M70.9453+90.2872L69.3334+96.5712L70.7608+98.8022L70.0581+102.145L71.1979+106.882" fill="none" stroke-linecap="round" opacity="1" stroke-linejoin="round"/>
<path stroke="#00324c" stroke-width="0.264583" d="M90.9782+100.097C90.9782+100.097+91.6121+99.1012+94.0315+99.0197" fill="none" stroke-linecap="round" opacity="1" stroke-linejoin="round"/>
<path stroke="#00324c" stroke-width="0.264583" d="M97.9862+103.661L104.479+107.89L96.8679+115.805" fill="none" stroke-linecap="round" opacity="1" stroke-linejoin="round"/>
<path stroke="#00324c" stroke-width="0.264583" d="M78.3171+89.2071C78.3171+89.2071+95.0448+90.8123+97.2563+98.259C98.6749+103.036+96.8679+108.499+96.8679+108.499" fill="none" stroke-linecap="round" opacity="1" stroke-linejoin="round"/>
<path stroke="#00324c" stroke-width="0.264583" d="M53.0503+115.98L55.489+123.354C55.489+123.354+64.3265+122.053+67.4821+118.699" fill="none" stroke-linecap="round" opacity="1" stroke-linejoin="round"/>
<path stroke="#00324c" stroke-width="0.264583" d="M68.7687+106.489C68.7687+106.489+67.0951+99.478+68.2586+95.6803C69.4224+91.883+70.6656+91.2491+70.6656+91.2491" fill="none" stroke-linecap="round" opacity="1" stroke-linejoin="round"/>
<path stroke="#00324c" stroke-width="0.264583" d="M64.8511+106.146L67.8543+97.9506" fill="none" stroke-linecap="round" opacity="1" stroke-linejoin="round"/>
<path stroke="#00324c" stroke-width="0.264583" d="M65.4175+82.23C65.4175+82.23+64.6996+84.4641+64.8513+86.4633C65.0026+88.4628+66.401+91.3115+69.6328+90.6712C72.8646+90.0309+73.3172+87.7499+73.3172+87.7499" fill="none" stroke-linecap="round" opacity="1" stroke-linejoin="round"/>
<path stroke="#00324c" stroke-width="0.264583" d="M75.4892+84.868C75.4892+84.868+75.7552+86.7547+74.4651+87.4595" fill="none" stroke-linecap="round" opacity="1" stroke-linejoin="round"/>
<path stroke="#00324c" stroke-width="0.264583" d="M65.3174+85.7111C65.3174+85.7111+65.7411+85.4243+67.0703+85.4581C68.3996+85.4923+69.3334+85.8501+69.3334+85.8501" fill="none" stroke-linecap="round" opacity="1" stroke-linejoin="round"/>
<path stroke="#00324c" stroke-width="0.264583" d="M70.956+135.72L72.9728+136.19" fill="none" stroke-linecap="round" opacity="1" stroke-linejoin="round"/>
<path stroke="#00324c" stroke-width="0.264583" d="M71.0435+119.403C71.0435+119.403+61.8402+124.524+58.8981+132.754C56.2025+140.295+61.4028+154.291+61.4028+154.291L71.4746+154.291L72.9728+136.19C72.9728+136.19+94.0129+125.283+94.6412+120.087" fill="none" stroke-linecap="round" opacity="1" stroke-linejoin="round"/>
<path stroke="#00324c" stroke-width="0.264583" d="M79.7827+132.607C79.7827+132.607+81.1327+138.376+83.7362+141.905C87.0929+146.455+97.3344+152.923+97.3344+152.923L104.19+146.704" fill="none" stroke-linecap="round" opacity="1" stroke-linejoin="round"/>
<path stroke="#00324c" stroke-width="0.264583" d="M90.5431+135.72C90.5431+135.72+92.0082+134.258+92.3207+133.095" fill="none" stroke-linecap="round" opacity="1" stroke-linejoin="round"/>
<path stroke="#00324c" stroke-width="0.352778" d="M100.172+155.2C100.172+155.2+99.6638+154.85+98.3983+154.366" fill="#3d3c3c" stroke-linecap="butt" opacity="1" stroke-linejoin="miter"/>
<path stroke="#00324c" stroke-width="0.264583" d="M70.9453+90.2872L72.7011+92.0909L74.4653+90.0815" fill="none" stroke-linecap="round" opacity="1" stroke-linejoin="round"/>
<path d="M65.3234+81.9225C65.3234+81.9225+65.4278+81.4042+66.0353+81.2568C66.6425+81.1097+67.0873+81.9532+66.8725+82.0759C66.658+82.1987+66.5133+81.8766+66.1253+81.8766C65.7376+81.8766+65.509+82.2414+65.509+82.2414C65.509+82.2414+65.2776+82.2904+65.3234+81.9225" opacity="1" fill="#00324c"/>
<path d="M50.0798+44.0681L46.8808+44.0681L46.8808+41.0236L44.121+41.0236L44.121+44.0681L40.922+44.0681L40.922+46.8279L44.121+46.8279L44.121+50.1814L46.8808+50.1814L46.8808+46.8279L50.0798+46.8279L50.0798+44.0681Z" opacity="1" fill="#7088ff"/>
<path d="M50.0798+126.82L46.1036+126.82L46.1036+123.036L42.6735+123.036L42.6735+126.82L38.6974+126.82L38.6974+130.25L42.6735+130.25L42.6735+134.418L46.1036+134.418L46.1036+130.25L50.0798+130.25L50.0798+126.82Z" opacity="1" fill="#7088ff"/>
<path d="M114.83+39.7299L109.339+39.7299L109.339+34.5042L104.602+34.5042L104.602+39.7299L99.1112+39.7299L99.1112+44.467L104.602+44.467L104.602+50.2229L109.339+50.2229L109.339+44.467L114.83+44.467L114.83+39.7299Z" opacity="1" fill="#7088ff"/>
</g>
</g>
</g>
</g>
</svg>
